<svg width="100" height="100" viewBox="0 0 100 100" fill="none" xmlns="http://www.w3.org/2000/svg">
  <defs>
    <linearGradient id="neuralGradient" x1="0%" y1="0%" x2="100%" y2="100%">
      <stop offset="0%" stop-color="#3b82f6" />
      <stop offset="50%" stop-color="#8b5cf6" />
      <stop offset="100%" stop-color="#ec4899" />
    </linearGradient>
    <filter id="glow">
      <feGaussianBlur stdDeviation="3" result="coloredBlur"/>
      <feMerge> 
        <feMergeNode in="coloredBlur"/>
        <feMergeNode in="SourceGraphic"/>
      </feMerge>
    </filter>
  </defs>
  
  <!-- Background circle for better visibility -->
  <circle cx="50" cy="50" r="48" fill="white" stroke="url(#neuralGradient)" stroke-width="2"/>
  
  <!-- Neural network nodes -->
  <circle cx="20" cy="30" r="4" fill="url(#neuralGradient)" filter="url(#glow)" />
  <circle cx="20" cy="50" r="4" fill="url(#neuralGradient)" filter="url(#glow)" />
  <circle cx="20" cy="70" r="4" fill="url(#neuralGradient)" filter="url(#glow)" />
  
  <circle cx="50" cy="20" r="5" fill="url(#neuralGradient)" filter="url(#glow)" />
  <circle cx="50" cy="40" r="5" fill="url(#neuralGradient)" filter="url(#glow)" />
  <circle cx="50" cy="60" r="5" fill="url(#neuralGradient)" filter="url(#glow)" />
  <circle cx="50" cy="80" r="5" fill="url(#neuralGradient)" filter="url(#glow)" />
  
  <circle cx="80" cy="35" r="4" fill="url(#neuralGradient)" filter="url(#glow)" />
  <circle cx="80" cy="55" r="4" fill="url(#neuralGradient)" filter="url(#glow)" />
  
  <!-- Neural network connections -->
  <line x1="24" y1="30" x2="46" y2="20" stroke="url(#neuralGradient)" stroke-width="1.5" opacity="0.6" />
  <line x1="24" y1="30" x2="46" y2="40" stroke="url(#neuralGradient)" stroke-width="1.5" opacity="0.6" />
  <line x1="24" y1="50" x2="46" y2="40" stroke="url(#neuralGradient)" stroke-width="1.5" opacity="0.8" />
  <line x1="24" y1="50" x2="46" y2="60" stroke="url(#neuralGradient)" stroke-width="1.5" opacity="0.8" />
  <line x1="24" y1="70" x2="46" y2="60" stroke="url(#neuralGradient)" stroke-width="1.5" opacity="0.6" />
  <line x1="24" y1="70" x2="46" y2="80" stroke="url(#neuralGradient)" stroke-width="1.5" opacity="0.6" />
  
  <line x1="54" y1="20" x2="76" y2="35" stroke="url(#neuralGradient)" stroke-width="1.5" opacity="0.7" />
  <line x1="54" y1="40" x2="76" y2="35" stroke="url(#neuralGradient)" stroke-width="1.5" opacity="0.9" />
  <line x1="54" y1="40" x2="76" y2="55" stroke="url(#neuralGradient)" stroke-width="1.5" opacity="0.9" />
  <line x1="54" y1="60" x2="76" y2="55" stroke="url(#neuralGradient)" stroke-width="1.5" opacity="0.9" />
  <line x1="54" y1="80" x2="76" y2="55" stroke="url(#neuralGradient)" stroke-width="1.5" opacity="0.7" />
</svg>